<svg height="994" viewBox=".24 .242 264.167 104.812" width="2500" xmlns="http://www.w3.org/2000/svg"><g fill="#1e1852"><path d="m169.851 79.802h-11.5c-4.816 0-7.303-1.087-9.09-3.418-1.864-2.486-1.864-6.216-1.864-9.79v-66.352h14.84v68.45c0 5.439.621 9.323 7.692 10.877zm-29.991 0h-18.49l-13.597-28.359c-7.46 4.04-11.655 13.364-19.191 19.58-3.807 3.185-8.314 5.982-13.908 7.847-2.564.855-6.837 1.943-8.469 2.098-.7.078-1.165 0-1.243-.233-.078-.156.078-.31.855-.7.854-.388 4.195-1.786 6.37-3.263 2.642-1.864 4.196-3.884 4.274-5.438-.7-2.564-5.905-8.314-.621-18.803 1.942-3.73 3.574-6.449 4.739-9.168 1.399-3.108 2.33-7.537 2.642-10.8 0-.155.077-.155.155-.078 2.564 2.642 12.665 12.976 11.188 23.31 3.341-1.321 9.168-5.206 11.81-7.304 2.797-2.176 4.662-4.506 7.614-4.506 2.642-.078 2.875 1.243 5.05 1.553.544.078 1.321 0 1.71-.233.155-.077.155-.233-.155-.31-2.875-.7-3.574-3.03-7.382-3.03-3.34 0-6.06 3.107-8.002 4.35l-9.48-19.89c-3.962-8.313-2.796-14.296 5.983-26.183zm59.749 0h-11.5c-4.817 0-7.303-1.087-9.09-3.418-1.865-2.486-1.865-6.216-1.865-9.79v-66.352h14.84v68.45c0 5.439.622 9.323 7.692 10.877z"/><path d="m11.895 101.635h-6.838l-1.32 3.186h-3.497l6.527-14.685h3.34l6.605 14.685h-3.574zm-1.088-2.564-2.331-5.594-2.331 5.594zm10.256 4.973c-1.243-.622-2.176-1.554-2.875-2.72s-1.01-2.486-1.01-3.884c0-1.477.31-2.798 1.01-3.885.7-1.166 1.632-2.02 2.875-2.72 1.243-.621 2.564-1.01 4.118-1.01 1.243 0 2.408.233 3.418.7s1.865 1.087 2.564 1.942l-2.175 2.02c-1.01-1.165-2.254-1.71-3.73-1.71-.932 0-1.71.234-2.408.622s-1.243.933-1.632 1.632-.622 1.554-.622 2.409.234 1.709.622 2.408.932 1.243 1.632 1.632 1.554.621 2.408.621c1.476 0 2.72-.544 3.73-1.709l2.175 2.02c-.7.855-1.554 1.476-2.641 1.943-1.01.466-2.176.699-3.497.699-1.398 0-2.72-.389-3.962-1.01zm15.15 0c-1.243-.622-2.175-1.554-2.874-2.72s-1.01-2.486-1.01-3.884c0-1.477.31-2.798 1.01-3.885.699-1.166 1.631-2.02 2.874-2.72s2.564-1.01 4.118-1.01c1.243 0 2.409.233 3.419.7s1.865 1.087 2.564 1.942l-2.176 2.02c-1.01-1.165-2.253-1.71-3.729-1.71-.932 0-1.71.234-2.409.622s-1.243.933-1.631 1.632-.622 1.554-.622 2.409.233 1.709.622 2.408.932 1.243 1.631 1.632 1.554.621 2.409.621c1.476 0 2.72-.544 3.73-1.709l2.175 2.02c-.7.855-1.554 1.476-2.642 1.943-1.01.466-2.175.699-3.496.699-1.399 0-2.72-.389-3.963-1.01zm15.151 0c-1.243-.622-2.175-1.554-2.875-2.72s-1.01-2.486-1.01-3.884.311-2.72 1.01-3.885 1.632-2.098 2.875-2.72 2.564-1.01 4.118-1.01 2.875.311 4.118 1.01c1.243.622 2.175 1.554 2.875 2.72s1.01 2.486 1.01 3.885-.311 2.719-1.01 3.884-1.632 2.098-2.875 2.72-2.564 1.01-4.118 1.01-2.875-.389-4.118-1.01zm6.449-2.487c.7-.388 1.243-.932 1.632-1.631s.621-1.554.621-2.409-.233-1.71-.621-2.408-.933-1.243-1.632-1.632-1.476-.622-2.33-.622-1.633.234-2.332.622-1.243.932-1.631 1.632-.622 1.554-.622 2.408.233 1.71.622 2.409.932 1.243 1.631 1.631 1.476.622 2.331.622c.855-.078 1.632-.233 2.331-.622zm17.637 3.186-2.797-4.118h-3.108v4.118h-3.419v-14.685h6.372c1.32 0 2.408.233 3.418.622s1.71 1.01 2.253 1.865c.544.777.777 1.709.777 2.797s-.233 2.02-.777 2.797-1.243 1.398-2.253 1.787l3.263 4.74zm-.855-11.266c-.543-.466-1.32-.7-2.33-.7h-2.798v5.129h2.797c1.01 0 1.788-.233 2.331-.7s.777-1.087.777-1.864c.078-.777-.233-1.399-.777-1.865zm12.043 5.361c-.388-.388-.621-.932-.621-1.554s.233-1.088.621-1.476.933-.622 1.477-.622a2.122 2.122 0 0 1 2.097 2.098c0 .544-.233 1.088-.621 1.554a2.123 2.123 0 0 1 -1.476.622c-.622-.078-1.088-.233-1.477-.622zm11.422-8.78h3.418v11.966h7.381v2.797h-10.8zm12.742 0h3.418v14.685h-3.418zm20.978 0-6.371 14.685h-3.341l-6.371-14.685h3.651l4.507 10.49 4.506-10.49zm12.664 11.966v2.719h-11.421v-14.685h11.11v2.72h-7.691v3.185h6.837v2.642h-6.837v3.419zm8.702-11.966h3.419v11.966h7.381v2.797h-10.8zm12.742 0h3.42v14.685h-3.42zm20.279 14.685v-8.857l-4.35 7.303h-1.555l-4.273-7.07v8.624h-3.186v-14.685h2.797l5.517 9.169 5.439-9.169h2.797l.077 14.685zm6.76-14.685h3.418v14.685h-3.418zm9.945 2.797h-4.74v-2.797h12.82v2.797h-4.74v11.966h-3.418v-11.966zm10.023-2.797h3.418v11.966h7.381v2.797h-10.8zm24.085 11.966v2.719h-11.343v-14.685h11.11v2.72h-7.692v3.185h6.838v2.642h-6.838v3.419zm4.196 2.564c-1.088-.311-1.942-.7-2.642-1.244l1.166-2.564a6.756 6.756 0 0 0 2.253 1.088c.855.311 1.71.389 2.642.389s1.71-.156 2.175-.466.7-.7.7-1.166c0-.31-.156-.621-.389-.855-.31-.233-.622-.388-1.01-.543s-1.01-.311-1.71-.467c-1.087-.233-2.02-.543-2.719-.777s-1.32-.699-1.864-1.32-.777-1.399-.777-2.331c0-.855.233-1.632.699-2.331s1.165-1.243 2.098-1.632 2.097-.621 3.418-.621c.933 0 1.865.077 2.72.31.932.233 1.709.544 2.33.933l-1.01 2.564c-1.32-.777-2.719-1.166-4.04-1.166-.932 0-1.631.156-2.097.466s-.7.7-.7 1.244c0 .466.233.854.777 1.087s1.321.467 2.409.7 2.02.543 2.72.777 1.32.699 1.864 1.243.777 1.32.777 2.33c0 .855-.233 1.632-.7 2.331s-1.165 1.244-2.097 1.632-2.098.622-3.419.622c-1.32.233-2.486.077-3.574-.233zm13.442 0c-1.088-.311-1.943-.7-2.642-1.244l1.165-2.564a6.756 6.756 0 0 0 2.254 1.088c.854.311 1.709.389 2.641.389s1.71-.156 2.176-.466.699-.7.699-1.166c0-.31-.155-.621-.389-.855-.31-.233-.621-.388-1.01-.543s-1.01-.311-1.709-.467c-1.088-.233-2.02-.543-2.72-.777s-1.32-.699-1.864-1.32-.777-1.399-.777-2.331c0-.855.233-1.632.7-2.331s1.165-1.243 2.097-1.632 2.098-.621 3.419-.621c.932 0 1.864.077 2.72.31.931.233 1.708.544 2.33.933l-1.01 2.564c-1.32-.777-2.72-1.166-4.04-1.166-.933 0-1.632.156-2.098.466s-.7.7-.7 1.244c0 .466.234.854.778 1.087s1.32.467 2.408.7 2.02.543 2.72.777 1.32.699 1.864 1.243.777 1.32.777 2.33c0 .855-.233 1.632-.699 2.331s-1.165 1.244-2.098 1.632-2.098.622-3.418.622c-1.321.233-2.487.077-3.574-.233z"/></g></svg>